<?xml version="1.0" encoding="utf-8"?>
<!-- Generator: Adobe Illustrator 19.0.0, SVG Export Plug-In . SVG Version: 6.00 Build 0)  -->
<svg version="1.1" id="Layer_1" xmlns="http://www.w3.org/2000/svg" xmlns:xlink="http://www.w3.org/1999/xlink" x="0px" y="0px"
	 viewBox="-108 26 32 30" style="enable-background:new -107 26 85 30;" xml:space="preserve">
<style type="text/css">
	.st0{fill:#7F27FF;}
	.st1{fill:#FFFFFF;}
	.st2{fill:none;stroke:#FFFFFF;}
</style>
<title>Group 2</title>
<desc>Created with Sketch.</desc>
<g id="Page-1">
	<g id="Group-2">
		<circle id="Oval" class="st0" cx="-92" cy="41" r="15"/>
		<g id="Group" transform="translate(7.000000, 7.000000)">
			<path id="Combined-Shape" class="st1" d="M-99.5,32h-6.5v6.5c0,1.4,1.1,2.5,2.5,2.5h4V32z M-98.5,32h6.5v6.5
				c0,1.4-1.1,2.5-2.5,2.5h-4V32z"/>
			<path id="Combined-Shape_1_" class="st1" d="M-98.5,31h6.3c0.7,0,1.2-0.6,1.2-1.2l0,0c0-0.7-0.6-1.2-1.2-1.2h-13.5l0,0
				c-0.7,0-1.2,0.6-1.2,1.2l0,0l0,0c0,0.7,0.6,1.2,1.2,1.2h6.2v-1.6h1V31z"/>
			<path id="Path-2" class="st2" d="M-98.3,29c1.4-2.5,2.5-3.3,3.3-2.5c0.8,0.8,0.3,1.6-1.4,2.5H-98.3z"/>
			<path id="Path-2_1_" class="st2" d="M-99.7,29c-1.4-2.5-2.5-3.3-3.3-2.5c-0.8,0.8-0.3,1.6,1.4,2.5H-99.7z"/>
		</g>

	</g>
</g>
</svg>
